<svg width="200" height="120" viewBox="0 0 200 120" fill="none" xmlns="http://www.w3.org/2000/svg">
<path d="M78.5404 115.892C77.0397 108.06 72.6774 101.066 66.3029 96.2729C59.9285 91.4801 51.9983 89.2315 44.0568 89.965C19.5478 92.0544 -9.94852 83.0866 3.27448 50.1435C27.1125 -9.33718 40.5795 -6.59195 94.8747 12.7926C122.221 21.7452 132.775 -9.56597 169.866 3.03172C194.009 11.237 204.533 19.2898 198.188 42.9295C181.533 105.064 165.443 45.8883 124.325 91.5969C99.8161 118.912 80.218 125.242 78.5404 115.892Z" fill="#A0042D"/>
<path d="M96.1712 65.6085C94.9009 65.6246 93.6372 65.4234 92.4346 65.0137C91.0228 64.4967 89.7584 63.6431 88.7512 62.5268C87.7439 61.4106 87.0241 60.0655 86.6543 58.6081C86.028 56.3394 85.8928 53.9633 86.2578 51.6382C86.6314 49.2736 87.427 46.9954 88.6065 44.9123C88.9726 44.287 89.3539 43.6617 89.7656 43.0821C91.9497 39.8895 94.9309 37.3237 98.4132 35.6394C99.5178 35.0874 100.732 34.7903 101.967 34.7701C102.261 34.7469 102.557 34.7469 102.851 34.7701C103.781 34.8939 104.658 35.2741 105.383 35.8682C106.109 36.5479 106.637 37.4127 106.908 38.3695C107.444 40.5685 107.317 42.8771 106.542 45.0038C106.005 46.9223 105.121 48.7262 103.934 50.3266C101.925 53.305 98.9608 55.5104 95.5307 56.5797C94.3716 56.8542 93.3802 56.8542 93.243 56.3357C93.1057 55.8171 94.0208 55.2376 94.6309 54.8105C95.7211 54.0433 96.7101 53.1414 97.5744 52.1262C99.6335 49.6889 101.124 46.8234 101.936 43.7379C102.089 43.0974 102.668 40.8554 101.936 40.3979C101.204 39.9403 100.411 40.5351 99.8163 40.8554C97.588 42.2001 95.6865 44.0234 94.2496 46.1934C93.9445 46.651 93.6395 47.1085 93.365 47.5813C92.5053 49.0863 91.9071 50.7262 91.5958 52.4313C91.3077 54.0667 91.3964 55.7463 91.8551 57.3423C92.0663 58.1159 92.4349 58.8376 92.9379 59.4622C94.4631 61.2466 97.2083 61.2924 99.3435 60.8348C102.138 60.2505 104.693 58.8428 106.679 56.7932C107.915 55.5578 108.51 54.597 109.211 54.7037C109.913 54.8105 109.73 56.1526 109.577 56.6864C109.04 58.3401 108.114 59.841 106.878 61.0636C104.026 63.885 100.211 65.5201 96.2018 65.639" fill="white"/>
<path d="M94.9051 27.373C97.7058 24.7512 101.303 23.1407 105.124 22.7976H105.718C107.823 22.7976 108.082 23.6212 108.037 24.3228C107.869 25.6649 104.361 27.7543 94.5391 30.8961L93.2579 31.3232C93.2064 30.6045 93.3167 29.8835 93.5806 29.2131C93.8446 28.5426 94.2555 27.94 94.7831 27.4493" fill="white"/>
<path d="M81.8652 71.4039C79.3663 71.3842 76.9105 70.7508 74.7139 69.5594C72.5172 68.368 70.6469 66.655 69.2675 64.5712C68.9625 63.8231 68.8556 63.009 68.9572 62.2075C69.0587 61.406 69.3652 60.6442 69.8471 59.9958C72.3178 55.5576 76.0849 51.9888 77.5948 46.9863C78.1362 45.7435 78.2173 44.3485 77.8236 43.0514C77.6836 42.7512 77.4398 42.5117 77.137 42.3771C76.8343 42.2426 76.4931 42.2221 76.1765 42.3194C74.3679 42.9417 72.7998 44.1151 71.6925 45.6747C70.0201 47.8015 68.7158 50.1935 67.8339 52.7514C66.308 57.2539 65.6457 62.004 65.8817 66.7522C65.8817 68.1553 65.8817 70.199 64.8904 70.3058C62.984 70.504 62.2671 64.2052 62.1604 62.9698C61.8395 59.0316 62.2374 55.0678 63.3347 51.272C64.1871 48.0962 65.6137 45.1033 67.5441 42.4414C70.1369 39.0555 75.9172 34.6936 80.3401 37.6829C83.6802 39.9554 83.9089 45.3086 82.7803 48.7249C81.2728 52.5171 79.1611 56.04 76.5272 59.1569L75.9477 59.9348C75.2766 60.7889 74.6056 61.6734 73.9955 62.558C73.8997 62.6942 73.8482 62.8567 73.8482 63.0232C73.8482 63.1897 73.8997 63.3522 73.9955 63.4884C74.4982 64.1993 75.0932 64.8404 75.7647 65.3948C76.8326 66.2648 78.0189 66.9786 79.2877 67.5147C80.7416 68.1555 82.2843 68.5721 83.8632 68.7501C84.4493 68.7841 85.0313 68.8709 85.6018 69.0094C85.7535 69.0393 85.8921 69.1155 85.9986 69.2275C86.1052 69.3395 86.1743 69.4817 86.1967 69.6347C86.3949 71.1598 82.8566 71.4801 81.8652 71.4649" fill="white"/>
<path d="M139.531 58.9893C138.54 58.9893 138.54 56.1525 138.662 54.4139C138.784 52.6752 138.982 50.9518 139.028 50.2655C139.302 46.9559 139.699 43.6311 139.821 40.3063C140.126 30.8809 140.827 27.2815 142.398 26.885H142.688C142.905 26.8853 143.119 26.9316 143.316 27.0211C143.513 27.1105 143.689 27.2409 143.832 27.4036C145.159 28.9287 145.22 37.8965 144.96 41.5569C144.777 45.1995 144.167 48.808 143.146 52.3091C141.986 56.1525 140.827 58.9893 139.546 58.9893" fill="white"/>
<path d="M119.292 62.6038C119.031 62.3025 118.707 62.0608 118.344 61.895C117.981 61.7293 117.587 61.6433 117.188 61.643C116.166 61.643 115.373 61.3685 114.625 59.279C114.201 58.0387 113.889 56.7626 113.695 55.4661C113.268 52.4887 113.008 49.4896 112.917 46.483C112.917 45.5222 112.826 44.5614 112.78 43.6005C112.688 41.7093 112.597 39.7572 112.475 37.8355C112.376 35.9133 112.131 34.0014 111.743 32.1162C111.331 30.591 112.841 30.9266 113.878 32.3145C114.915 33.7993 115.651 35.4729 116.044 37.2406C116.743 40.0502 117.252 42.9036 117.569 45.7815L117.798 47.4744C118.087 49.8384 118.408 52.1871 118.88 54.5053C118.972 54.8866 119.216 55.6796 119.857 54.7798C124.59 48.2863 128.551 41.2641 131.661 33.8548C132.866 31.1858 133.522 29.5997 134.635 27.068C134.864 26.3797 135.198 25.7314 135.627 25.1463C136.328 24.3532 137.045 24.6887 136.969 26.2444C136.435 36.9966 127.94 55.7102 120.192 62.6496C120.14 62.7075 120.077 62.7537 120.006 62.7853C119.935 62.8168 119.858 62.833 119.78 62.8326C119.7 62.8352 119.62 62.8201 119.546 62.7885C119.473 62.7568 119.407 62.7094 119.353 62.6496L119.292 62.6038Z" fill="white"/>
<path d="M151.152 57.937C150.878 57.937 149.993 57.815 149.932 56.2288C149.932 55.1155 149.932 53.9411 149.932 52.8277C149.932 51.7144 149.932 50.662 149.932 49.5944C149.932 47.8558 149.78 46.0866 149.688 44.3785C149.566 42.2585 149.444 40.0471 149.398 37.8966C149.154 27.6781 150.466 22.4011 153.272 22.2791C153.42 22.2778 153.567 22.3069 153.704 22.3646C153.84 22.4224 153.963 22.5074 154.065 22.6146C154.523 23.1179 155.24 25.8784 154.691 31.4757C155.205 29.4839 156.261 27.6734 157.741 26.2445C158.514 25.4784 159.526 24.9995 160.608 24.8871C161.24 24.8272 161.877 24.9113 162.471 25.1332C163.066 25.3552 163.602 25.709 164.04 26.1682C164.788 26.9152 165.366 27.8153 165.733 28.8067C166.541 30.9521 167.149 33.168 167.548 35.4258C167.837 36.8747 168.066 38.3694 168.295 39.8183C168.676 42.2737 169.363 47.6118 170.994 49.3657C172.977 51.5161 176.5 48.0083 177.675 46.5289C178.574 45.4003 180.328 42.289 181.106 42.5025C181.884 42.716 181.365 44.2107 181.182 44.9275C180.956 45.804 180.634 46.653 180.222 47.4592C179.376 49.1993 178.195 50.7545 176.744 52.0347C175.998 52.6741 175.153 53.1891 174.243 53.5598C173.516 53.8529 172.739 54.0031 171.955 54.0021C171.671 54.0248 171.385 54.0248 171.101 54.0021C169.925 53.8178 168.832 53.2867 167.959 52.477C166.948 51.5043 166.144 50.337 165.595 49.0454C164.452 46.2719 163.658 43.3671 163.231 40.3978C163.003 39.0709 162.774 37.8203 162.484 36.6154V36.4019C162.149 34.9988 162.057 31.369 160.806 31.1097C158.381 30.6216 155.102 40.2606 154.447 49.9757C154.306 52.1821 153.79 54.3484 152.921 56.3814C152.433 57.4337 151.778 58.0438 151.107 58.0438L151.152 57.937Z" fill="white"/>
<path d="M32.5878 66.4319C33.4547 66.5235 34.3288 66.5235 35.1958 66.4319C38.3309 65.9944 41.3079 64.7836 43.8586 62.9088C46.6945 60.9102 49.118 58.3831 50.9963 55.4661C52.6741 52.9879 53.7499 50.1521 54.1381 47.1846C54.2601 46.2085 53.833 46.1017 53.6348 46.0407C53.1813 45.9215 52.7156 45.855 52.2469 45.8424C49.2325 45.7763 46.2338 46.2942 43.4163 47.3676C41.4852 48.0092 39.6208 48.8367 37.8495 49.8383C37.1479 50.2349 35.0585 51.5923 35.0585 52.004C35.0585 52.1108 35.0585 52.248 35.5008 52.4616C37.6207 53.6969 41.4183 53.4834 43.7976 53.1326C44.2551 53.0564 44.9719 53.2089 44.9719 53.6664C44.9469 53.8378 44.8793 54.0001 44.7754 54.1386C44.6715 54.2772 44.5346 54.3875 44.3771 54.4595C41.2464 55.9012 37.7036 56.1771 34.3874 55.2373C33.6884 55.0251 33.0504 54.6486 32.5268 54.1392C32.2657 53.8737 32.054 53.5638 31.9015 53.2241C31.7522 52.8819 31.6694 52.5145 31.6574 52.1413C31.6375 51.4465 31.8118 50.7598 32.1607 50.1586C32.4912 49.5979 32.8966 49.0848 33.3656 48.6334C35.7765 46.307 38.6502 44.5143 41.7996 43.3717C45.1108 41.8818 48.6794 41.0479 52.3079 40.9162C53.9669 40.8663 55.6046 41.3009 57.0206 42.1668C57.7975 42.68 58.4239 43.3906 58.8355 44.2258C59.2602 45.0876 59.4646 46.0414 59.4303 47.0016C59.2296 51.0975 57.9797 55.073 55.8005 58.5469C53.5927 62.1707 50.6901 65.3221 47.2597 67.8198C43.9307 70.3346 40.0142 71.9568 35.8821 72.5325C34.574 72.6697 33.2552 72.6697 31.9472 72.5325C31.1965 72.4535 30.4523 72.321 29.7205 72.1359C27.609 71.5767 25.6324 70.5962 23.9097 69.2534C21.2337 67.2308 19.2685 64.4113 18.2972 61.2006C17.3949 58.0866 17.1713 54.8153 17.6413 51.6075C18.524 45.1257 21.1608 39.0082 25.2671 33.9158C29.1743 29.1536 34.0785 25.3063 39.6339 22.645C44.2094 20.4336 51.0725 18.3593 56.2733 19.8692C57.2036 20.1438 58.4695 20.7386 58.1797 21.3944C57.8899 22.0502 57.4629 22.035 56.6545 21.9739C54.1401 21.8647 51.6249 22.1739 49.2118 22.889C46.5032 23.6355 43.9037 24.7328 41.4794 26.1528C36.7209 28.9438 32.5717 32.6626 29.2782 37.0881C25.9977 41.5725 23.9234 46.8239 23.2539 52.3396C22.9488 54.7332 23.1462 57.1642 23.8334 59.4772C24.477 61.4779 25.7236 63.2305 27.4023 64.495C28.5196 65.3209 29.7896 65.917 31.1389 66.2489C31.604 66.3696 32.0785 66.4512 32.5573 66.4929" fill="white"/>
<path d="M89.7348 95.2726C89.1151 95.3104 88.4938 95.3104 87.8741 95.2726C85.4636 95.0282 83.1256 94.3076 80.9957 93.1526C78.2657 91.7037 75.1392 88.9585 75.8255 87.8146C76.5118 86.6708 78.5097 89.1568 82.5666 89.9498C86.464 90.7893 90.5017 90.7266 94.3712 89.7668C97.835 88.8243 101.065 87.1728 103.858 84.9168C106.543 82.7552 108.946 80.265 111.011 77.5046C111.697 76.6048 112.993 74.8051 113.786 75.3084C114.579 75.8117 113.146 79.3348 112.52 80.6159C111.04 83.8715 108.895 86.7809 106.222 89.1567C101.674 93.1866 95.7797 95.3636 89.7043 95.2573" fill="white"/>
</svg>
