<svg width="131" height="70" viewBox="0 0 131 70" fill="none" xmlns="http://www.w3.org/2000/svg">
<path d="M62.8339 37.7805C62.0039 37.7898 61.1782 37.674 60.3925 37.438C59.4701 37.1403 58.644 36.6487 57.9859 36.0059C57.3278 35.3632 56.8576 34.5886 56.6159 33.7494C56.2067 32.4429 56.1184 31.0746 56.3569 29.7357C56.601 28.3741 57.1208 27.0622 57.8914 25.8626C58.1306 25.5025 58.3797 25.1425 58.6487 24.8087C60.0757 22.9702 62.0235 21.4927 64.2987 20.5228C65.0203 20.205 65.8138 20.0339 66.6204 20.0222C66.8128 20.0089 67.006 20.0089 67.1984 20.0222C67.8057 20.0935 68.3785 20.3125 68.8525 20.6546C69.3269 21.046 69.6714 21.544 69.849 22.0949C70.1993 23.3612 70.1161 24.6906 69.6098 25.9153C69.2587 27.0201 68.6812 28.0589 67.9059 28.9804C66.5929 30.6956 64.6565 31.9655 62.4154 32.5813C61.658 32.7394 61.0103 32.7394 60.9207 32.4408C60.831 32.1422 61.4289 31.8084 61.8274 31.5625C62.5398 31.1207 63.186 30.6013 63.7506 30.0168C65.0959 28.6132 66.0695 26.9631 66.6005 25.1864C66.7001 24.8175 67.0788 23.5265 66.6005 23.263C66.1222 22.9995 65.604 23.342 65.2154 23.5265C63.7595 24.3008 62.5172 25.3508 61.5783 26.6004C61.379 26.8638 61.1797 27.1273 61.0004 27.3996C60.4387 28.2662 60.0479 29.2106 59.8445 30.1924C59.6563 31.1342 59.7142 32.1014 60.0139 33.0204C60.1519 33.4659 60.3927 33.8815 60.7214 34.2412C61.7178 35.2687 63.5115 35.2951 64.9065 35.0316C66.732 34.6951 68.4014 33.8845 69.6995 32.7042C70.5066 31.9928 70.8952 31.4396 71.3536 31.501C71.812 31.5625 71.6924 32.3354 71.5928 32.6428C71.2416 33.595 70.6368 34.4593 69.829 35.1634C67.9661 36.7881 65.4734 37.7296 62.8538 37.7981" fill="#FFFAFA"/>
<path d="M62.0066 15.7627C63.8365 14.2529 66.1864 13.3255 68.6829 13.1279H69.0715C70.4466 13.1279 70.616 13.6022 70.5861 14.0062C70.4765 14.779 68.1847 15.9823 61.7674 17.7915L60.9304 18.0374C60.8968 17.6235 60.9688 17.2083 61.1413 16.8223C61.3137 16.4362 61.5822 16.0892 61.9269 15.8066" fill="#FFFAFA"/>
<path d="M53.4871 41.1179C51.8544 41.1066 50.2499 40.7419 48.8147 40.0558C47.3795 39.3697 46.1575 38.3833 45.2563 37.1834C45.057 36.7526 44.9872 36.2837 45.0535 35.8222C45.1199 35.3607 45.3201 34.922 45.635 34.5486C47.2492 31.9929 49.7105 29.9378 50.697 27.0571C51.0507 26.3414 51.1037 25.5381 50.8465 24.7912C50.755 24.6183 50.5957 24.4804 50.3979 24.4029C50.2001 24.3254 49.9772 24.3136 49.7703 24.3696C48.5886 24.728 47.5641 25.4037 46.8407 26.3018C45.748 27.5265 44.8958 28.9039 44.3196 30.3769C43.3227 32.9697 42.89 35.705 43.0442 38.4393C43.0442 39.2472 43.0442 40.4241 42.3965 40.4856C41.1509 40.5998 40.6826 36.9726 40.6128 36.2612C40.4032 33.9934 40.6632 31.7108 41.3801 29.525C41.937 27.6962 42.8691 25.9727 44.1303 24.4399C45.8243 22.4901 49.6009 19.9783 52.4906 21.6997C54.6729 23.0083 54.8223 26.091 54.085 28.0583C53.1 30.242 51.7203 32.2707 49.9995 34.0655L49.6208 34.5135C49.1824 35.0053 48.7439 35.5147 48.3453 36.0241C48.2827 36.1025 48.2491 36.196 48.2491 36.2919C48.2491 36.3878 48.2827 36.4814 48.3453 36.5598C48.6738 36.9692 49.0625 37.3384 49.5012 37.6576C50.199 38.1586 50.974 38.5697 51.8031 38.8784C52.753 39.2474 53.7609 39.4872 54.7925 39.5898C55.1754 39.6094 55.5556 39.6593 55.9284 39.7391C56.0275 39.7563 56.1181 39.8002 56.1877 39.8647C56.2573 39.9292 56.3025 40.0111 56.317 40.0992C56.4466 40.9774 54.1348 41.1618 53.4871 41.1531" fill="#FFFAFA"/>
<path d="M91.1636 33.9689C90.5159 33.9689 90.5159 32.3354 90.5956 31.3342C90.6753 30.333 90.8049 29.3405 90.8348 28.9453C91.0141 27.0395 91.2732 25.1249 91.3529 23.2103C91.5522 17.7827 92.0106 15.71 93.0369 15.4817H93.2263C93.3677 15.4818 93.5076 15.5085 93.6364 15.56C93.7653 15.6115 93.8802 15.6866 93.9736 15.7803C94.8405 16.6585 94.8804 21.8227 94.711 23.9305C94.5909 26.0281 94.1929 28.1061 93.5252 30.1222C92.7679 32.3354 92.0106 33.9689 91.1735 33.9689" fill="#FFFAFA"/>
<path d="M77.9403 36.0503C77.7693 35.8768 77.5581 35.7376 77.3208 35.6422C77.0836 35.5467 76.8259 35.4972 76.5652 35.497C75.8975 35.497 75.3794 35.339 74.8911 34.1357C74.6138 33.4215 74.4103 32.6866 74.2833 31.9401C74.0043 30.2255 73.8347 28.4985 73.7751 26.7672C73.7751 26.2139 73.7153 25.6606 73.6854 25.1073C73.6256 24.0182 73.5658 22.8941 73.4861 21.7875C73.4212 20.6806 73.2613 19.5796 73.0078 18.494C72.7387 17.6158 73.7252 17.809 74.4028 18.6082C75.0802 19.4633 75.5609 20.427 75.8178 21.4449C76.2746 23.0628 76.6075 24.7059 76.8143 26.3632L76.9637 27.3381C77.1531 28.6994 77.3623 30.0519 77.6712 31.3868C77.731 31.6064 77.8905 32.0631 78.309 31.5449C81.4015 27.8056 83.9897 23.7619 86.0216 19.4952C86.8088 17.9583 87.2373 17.0449 87.9647 15.587C88.1139 15.1907 88.3325 14.8173 88.6124 14.4804C89.0707 14.0237 89.5391 14.2169 89.4893 15.1127C89.1405 21.3044 83.5902 32.0806 78.5282 36.0767C78.4944 36.11 78.4529 36.1367 78.4065 36.1548C78.3601 36.173 78.3099 36.1823 78.2591 36.1821C78.2067 36.1836 78.1546 36.1749 78.1064 36.1567C78.0582 36.1385 78.0151 36.1112 77.9801 36.0767L77.9403 36.0503Z" fill="#FFFAFA"/>
<path d="M98.756 33.363C98.5767 33.363 97.9987 33.2927 97.9588 32.3793C97.9588 31.7382 97.9588 31.0619 97.9588 30.4208C97.9588 29.7797 97.9588 29.1737 97.9588 28.5589C97.9588 27.5577 97.8592 26.5389 97.7994 25.5553C97.7197 24.3345 97.64 23.0611 97.6101 21.8227C97.4507 15.9384 98.3076 12.8996 100.141 12.8294C100.238 12.8286 100.334 12.8454 100.423 12.8786C100.512 12.9119 100.592 12.9609 100.659 13.0226C100.958 13.3124 101.427 14.902 101.068 18.1252C101.404 16.9783 102.094 15.9357 103.061 15.1128C103.566 14.6717 104.227 14.3959 104.934 14.3312C105.347 14.2967 105.763 14.3451 106.151 14.4729C106.54 14.6007 106.89 14.8045 107.176 15.0689C107.665 15.4991 108.042 16.0174 108.282 16.5883C108.811 17.8237 109.208 19.0997 109.468 20.3999C109.657 21.2343 109.807 22.095 109.956 22.9293C110.205 24.3433 110.654 27.4172 111.72 28.4272C113.015 29.6655 115.317 27.6455 116.084 26.7936C116.672 26.1437 117.818 24.3521 118.327 24.475C118.835 24.598 118.496 25.4587 118.376 25.8715C118.228 26.3762 118.018 26.8651 117.749 27.3294C117.196 28.3314 116.424 29.2269 115.477 29.9641C114.989 30.3323 114.437 30.6289 113.842 30.8424C113.367 31.0111 112.86 31.0976 112.348 31.0971C112.162 31.1102 111.975 31.1102 111.79 31.0971C111.022 30.9909 110.307 30.6851 109.737 30.2188C109.076 29.6587 108.551 28.9865 108.193 28.2428C107.446 26.6456 106.927 24.9729 106.648 23.263C106.499 22.499 106.349 21.7788 106.16 21.085V20.962C105.941 20.154 105.881 18.0638 105.064 17.9145C103.479 17.6334 101.337 23.184 100.908 28.7785C100.817 30.049 100.48 31.2965 99.9119 32.4672C99.593 33.0732 99.1646 33.4245 98.7261 33.4245L98.756 33.363Z" fill="#FFFAFA"/>
<path d="M21.2914 38.255C21.8578 38.3077 22.429 38.3077 22.9954 38.255C25.0437 38.003 26.9888 37.3058 28.6553 36.2262C30.5081 35.0753 32.0915 33.6201 33.3187 31.9403C34.4149 30.5133 35.1179 28.8802 35.3714 27.1714C35.4511 26.6093 35.1721 26.5478 35.0426 26.5127C34.7463 26.4441 34.442 26.4058 34.1358 26.3985C32.1664 26.3605 30.2072 26.6587 28.3663 27.2768C27.1046 27.6463 25.8865 28.1228 24.7292 28.6996C24.2708 28.9279 22.9057 29.7096 22.9057 29.9467C22.9057 30.0082 22.9057 30.0872 23.1947 30.2102C24.5797 30.9215 27.0609 30.7986 28.6154 30.5966C28.9144 30.5527 29.3827 30.6405 29.3827 30.904C29.3663 31.0027 29.3222 31.0961 29.2543 31.1759C29.1864 31.2557 29.097 31.3192 28.9941 31.3607C26.9486 32.1909 24.6339 32.3497 22.4672 31.8086C22.0106 31.6864 21.5937 31.4695 21.2516 31.1762C21.081 31.0233 20.9427 30.8449 20.843 30.6493C20.7455 30.4522 20.6914 30.2406 20.6836 30.0257C20.6706 29.6256 20.7844 29.2302 21.0124 28.884C21.2284 28.5611 21.4932 28.2656 21.7996 28.0057C23.3748 26.6661 25.2523 25.6337 27.3101 24.9758C29.4734 24.1178 31.805 23.6376 34.1757 23.5618C35.2596 23.533 36.3296 23.7833 37.2547 24.2819C37.7624 24.5774 38.1716 24.9866 38.4405 25.4676C38.718 25.9639 38.8515 26.5131 38.8291 27.066C38.698 29.4246 37.8814 31.714 36.4576 33.7144C35.0151 35.8012 33.1187 37.6159 30.8774 39.0542C28.7024 40.5023 26.1436 41.4365 23.4438 41.768C22.5892 41.847 21.7275 41.847 20.8729 41.768C20.3824 41.7225 19.8962 41.6462 19.4181 41.5396C18.0385 41.2176 16.7471 40.653 15.6216 39.8797C13.8732 38.7151 12.5892 37.0914 11.9546 35.2426C11.3651 33.4494 11.219 31.5656 11.5261 29.7183C12.1028 25.9858 13.8256 22.463 16.5084 19.5306C19.0612 16.7883 22.2654 14.5728 25.8951 13.0403C28.8845 11.7668 33.3685 10.5724 36.7665 11.4419C37.3743 11.5999 38.2014 11.9425 38.012 12.3201C37.8227 12.6978 37.5437 12.689 37.0156 12.6539C35.3728 12.591 33.7295 12.769 32.1529 13.1808C30.3832 13.6107 28.6848 14.2425 27.1008 15.0603C23.9918 16.6675 21.2809 18.8089 19.1291 21.3574C16.9858 23.9397 15.6305 26.9637 15.1931 30.1399C14.9937 31.5183 15.1227 32.9182 15.5717 34.2501C15.9922 35.4022 16.8067 36.4115 17.9035 37.1396C18.6335 37.6152 19.4633 37.9585 20.3448 38.1496C20.6487 38.2191 20.9587 38.2661 21.2715 38.2901" fill="#FFFAFA"/>
<path d="M58.629 54.8628C58.2241 54.8846 57.8181 54.8846 57.4133 54.8628C55.8383 54.722 54.3108 54.3071 52.9192 53.642C51.1356 52.8076 49.0928 51.2268 49.5412 50.5681C49.9896 49.9094 51.295 51.341 53.9456 51.7977C56.492 52.281 59.13 52.245 61.6582 51.6923C63.9213 51.1495 66.0318 50.1985 67.8562 48.8994C69.6105 47.6546 71.1806 46.2207 72.5296 44.6311C72.978 44.1129 73.825 43.0766 74.3431 43.3664C74.8613 43.6562 73.9246 45.685 73.5161 46.4227C72.549 48.2974 71.1471 49.9728 69.4007 51.341C66.4294 53.6616 62.5784 54.9152 58.609 54.854" fill="#FFFAFA"/>
</svg>
