<svg width="44" height="44" viewBox="0 0 44 44" fill="none" xmlns="http://www.w3.org/2000/svg">
<path fill-rule="evenodd" clip-rule="evenodd" d="M21.5 2C18.8479 2 16.3043 3.07991 14.429 5.00216C12.5537 6.9244 11.5001 9.53153 11.5001 12.25V14.8125H9.00012C8.38467 14.8125 7.79084 15.0451 7.33232 15.4659C6.87381 15.8867 6.58285 16.4661 6.51515 17.0931L4.01517 40.1556C3.9765 40.5137 4.01195 40.8762 4.1192 41.2193C4.22645 41.5625 4.40309 41.8785 4.63759 42.147C4.87209 42.4154 5.15918 42.6301 5.48012 42.7771C5.80106 42.9241 6.14863 43 6.50015 43H36.4999C36.8514 43 37.1989 42.9241 37.5199 42.7771C37.8408 42.6301 38.1279 42.4154 38.3624 42.147C38.5969 41.8785 38.7735 41.5625 38.8808 41.2193C38.988 40.8762 39.0235 40.5137 38.9848 40.1556L36.4849 17.0931C36.4172 16.4661 36.1262 15.8867 35.6677 15.4659C35.2092 15.0451 34.6153 14.8125 33.9999 14.8125H31.4999V12.25C31.4999 9.53153 30.4463 6.9244 28.571 5.00216C26.6957 3.07991 24.1521 2 21.5 2ZM26.5 14.8125V12.25C26.5 10.8908 25.9732 9.5872 25.0355 8.62608C24.0978 7.66495 22.8261 7.125 21.5 7.125C20.1739 7.125 18.9022 7.66495 17.9645 8.62608C17.0268 9.5872 16.5001 10.8908 16.5001 12.25V14.8125H26.5ZM11.5001 22.5C11.5001 21.8204 11.7635 21.1686 12.2323 20.688C12.7012 20.2075 13.337 19.9375 14.0001 19.9375C14.6631 19.9375 15.299 20.2075 15.7678 20.688C16.2367 21.1686 16.5001 21.8204 16.5001 22.5C16.5001 23.1796 16.2367 23.8314 15.7678 24.312C15.299 24.7925 14.6631 25.0625 14.0001 25.0625C13.337 25.0625 12.7012 24.7925 12.2323 24.312C11.7635 23.8314 11.5001 23.1796 11.5001 22.5ZM28.9999 19.9375C28.3369 19.9375 27.701 20.2075 27.2322 20.688C26.7633 21.1686 26.5 21.8204 26.5 22.5C26.5 23.1796 26.7633 23.8314 27.2322 24.312C27.701 24.7925 28.3369 25.0625 28.9999 25.0625C29.663 25.0625 30.2988 24.7925 30.7677 24.312C31.2365 23.8314 31.4999 23.1796 31.4999 22.5C31.4999 21.8204 31.2365 21.1686 30.7677 20.688C30.2988 20.2075 29.663 19.9375 28.9999 19.9375Z" fill="white"/>
</svg>
