<svg width="19" height="24" viewBox="0 0 19 24" fill="none" xmlns="http://www.w3.org/2000/svg">
<path d="M16.3333 4.66667H14C14 2.08833 11.9117 0 9.33333 0C6.755 0 4.66667 2.08833 4.66667 4.66667H2.33333C1.05 4.66667 0 5.71667 0 7V21C0 22.2833 1.05 23.3333 2.33333 23.3333H16.3333C17.6167 23.3333 18.6667 22.2833 18.6667 21V7C18.6667 5.71667 17.6167 4.66667 16.3333 4.66667ZM7 9.33333C7 9.975 6.475 10.5 5.83333 10.5C5.19167 10.5 4.66667 9.975 4.66667 9.33333V7H7V9.33333ZM9.33333 2.33333C10.6167 2.33333 11.6667 3.38333 11.6667 4.66667H7C7 3.38333 8.05 2.33333 9.33333 2.33333ZM14 9.33333C14 9.975 13.475 10.5 12.8333 10.5C12.1917 10.5 11.6667 9.975 11.6667 9.33333V7H14V9.33333Z" fill="#FFFAFA"/>
</svg>
