<svg width="22" height="20" viewBox="0 0 22 20" fill="none" xmlns="http://www.w3.org/2000/svg">
<path d="M0.333496 2.00002C0.333496 1.6464 0.473972 1.30726 0.724021 1.05721C0.974069 0.807163 1.31321 0.666687 1.66683 0.666687H20.3335C20.6871 0.666687 21.0263 0.807163 21.2763 1.05721C21.5264 1.30726 21.6668 1.6464 21.6668 2.00002C21.6668 2.35364 21.5264 2.69278 21.2763 2.94283C21.0263 3.19288 20.6871 3.33335 20.3335 3.33335H1.66683C1.31321 3.33335 0.974069 3.19288 0.724021 2.94283C0.473972 2.69278 0.333496 2.35364 0.333496 2.00002ZM0.333496 18C0.333496 17.6464 0.473972 17.3073 0.724021 17.0572C0.974069 16.8072 1.31321 16.6667 1.66683 16.6667H20.3335C20.6871 16.6667 21.0263 16.8072 21.2763 17.0572C21.5264 17.3073 21.6668 17.6464 21.6668 18C21.6668 18.3536 21.5264 18.6928 21.2763 18.9428C21.0263 19.1929 20.6871 19.3334 20.3335 19.3334H1.66683C1.31321 19.3334 0.974069 19.1929 0.724021 18.9428C0.473972 18.6928 0.333496 18.3536 0.333496 18ZM1.66683 8.66669C1.31321 8.66669 0.974069 8.80717 0.724021 9.05721C0.473972 9.30726 0.333496 9.6464 0.333496 10C0.333496 10.3536 0.473972 10.6928 0.724021 10.9428C0.974069 11.1929 1.31321 11.3334 1.66683 11.3334H12.3335C12.6871 11.3334 13.0263 11.1929 13.2763 10.9428C13.5264 10.6928 13.6668 10.3536 13.6668 10C13.6668 9.6464 13.5264 9.30726 13.2763 9.05721C13.0263 8.80717 12.6871 8.66669 12.3335 8.66669H1.66683Z" fill="#FFFAFA"/>
</svg>
