<svg width="44" height="44" viewBox="0 0 44 44" fill="none" xmlns="http://www.w3.org/2000/svg">
<path d="M1.30615 22C1.30615 31.0063 7.08115 38.6375 15.0562 41.4563V2.54376C7.08115 5.36251 1.30615 12.9938 1.30615 22Z" fill="#428BC1"/>
<path d="M42.5562 22C42.5562 12.9938 36.8499 5.36251 28.8062 2.54376V41.4563C36.8499 38.6375 42.5562 31.0063 42.5562 22Z" fill="#ED4C5C"/>
<path d="M15.0562 41.4562C17.1874 42.2125 19.5249 42.625 21.9312 42.625C24.3374 42.625 26.6749 42.2125 28.8062 41.4562V2.54375C26.6749 1.7875 24.4062 1.375 21.9312 1.375C19.4562 1.375 17.1874 1.7875 15.0562 2.54375V41.4562Z" fill="white"/>
</svg>
