<svg width="28" height="28" viewBox="0 0 28 28" fill="none" xmlns="http://www.w3.org/2000/svg">
<path fill-rule="evenodd" clip-rule="evenodd" d="M13.9998 1.16675C6.91234 1.16675 1.1665 6.91258 1.1665 14.0001C1.1665 21.0876 6.91234 26.8334 13.9998 26.8334C21.0873 26.8334 26.8332 21.0876 26.8332 14.0001C26.8332 6.91258 21.0873 1.16675 13.9998 1.16675ZM13.4165 7.00008C13.1071 7.00008 12.8103 7.123 12.5915 7.34179C12.3728 7.56058 12.2498 7.85733 12.2498 8.16675C12.2498 8.47617 12.3728 8.77291 12.5915 8.99171C12.8103 9.2105 13.1071 9.33342 13.4165 9.33342H13.9998C14.3093 9.33342 14.606 9.2105 14.8248 8.99171C15.0436 8.77291 15.1665 8.47617 15.1665 8.16675C15.1665 7.85733 15.0436 7.56058 14.8248 7.34179C14.606 7.123 14.3093 7.00008 13.9998 7.00008H13.4165ZM11.6665 11.6667C11.3571 11.6667 11.0603 11.7897 10.8415 12.0085C10.6228 12.2273 10.4998 12.524 10.4998 12.8334C10.4998 13.1428 10.6228 13.4396 10.8415 13.6584C11.0603 13.8772 11.3571 14.0001 11.6665 14.0001H12.8332V17.5001H11.6665C11.3571 17.5001 11.0603 17.623 10.8415 17.8418C10.6228 18.0606 10.4998 18.3573 10.4998 18.6667C10.4998 18.9762 10.6228 19.2729 10.8415 19.4917C11.0603 19.7105 11.3571 19.8334 11.6665 19.8334H16.3332C16.6426 19.8334 16.9393 19.7105 17.1581 19.4917C17.3769 19.2729 17.4998 18.9762 17.4998 18.6667C17.4998 18.3573 17.3769 18.0606 17.1581 17.8418C16.9393 17.623 16.6426 17.5001 16.3332 17.5001H15.1665V12.8334C15.1665 12.524 15.0436 12.2273 14.8248 12.0085C14.606 11.7897 14.3093 11.6667 13.9998 11.6667H11.6665Z" fill="#FFFAFA"/>
</svg>
