<svg width="29" height="28" viewBox="0 0 29 28" fill="none" xmlns="http://www.w3.org/2000/svg">
<path d="M9.94701 17.0003C8.96832 17.0004 8.01158 16.7103 7.1978 16.1666C6.38402 15.6229 5.74975 14.8501 5.37521 13.9459C5.00067 13.0417 4.90268 12.0468 5.09364 11.0869C5.2846 10.127 5.75592 9.24533 6.44801 8.55333L11.554 3.44933C12.482 2.52134 13.7406 2 15.053 2C16.3654 2 17.624 2.52134 18.552 3.44933C19.48 4.37733 20.0013 5.63595 20.0013 6.94833C20.0013 8.26071 19.48 9.51934 18.552 10.4473L17.999 10.9993L16.584 9.58633L17.141 9.02933C17.6919 8.47581 18.0008 7.72644 18.0001 6.94551C17.9993 6.16457 17.689 5.41579 17.137 4.86333C16.5752 4.32722 15.8285 4.02809 15.052 4.02809C14.2755 4.02809 13.5288 4.32722 12.967 4.86333L7.86301 9.96733C7.58901 10.241 7.37164 10.566 7.22334 10.9238C7.07503 11.2816 6.9987 11.6651 6.9987 12.0523C6.9987 12.4396 7.07503 12.8231 7.22334 13.1809C7.37164 13.5386 7.58901 13.8636 7.86301 14.1373C8.42478 14.6735 9.17147 14.9726 9.94801 14.9726C10.7245 14.9726 11.4712 14.6735 12.033 14.1373L13.447 15.5513C12.9884 16.0122 12.4429 16.3776 11.8421 16.6263C11.2413 16.8751 10.5972 17.0022 9.94701 17.0003V17.0003Z" fill="black"/>
<path d="M17.947 15.0003C16.9683 15.0004 16.0116 14.7103 15.1978 14.1666C14.384 13.6229 13.7497 12.8501 13.3752 11.9459C13.0007 11.0417 12.9027 10.0468 13.0936 9.0869C13.2846 8.12702 13.7559 7.24533 14.448 6.55333L15.001 6.00133L16.415 7.41633L15.863 7.96833C15.3102 8.52119 14.9996 9.271 14.9996 10.0528C14.9996 10.8347 15.3102 11.5845 15.863 12.1373C16.4248 12.6735 17.1715 12.9726 17.948 12.9726C18.7245 12.9726 19.4712 12.6735 20.033 12.1373L25.138 7.03233C25.6898 6.47913 25.9997 5.72968 25.9997 4.94833C25.9997 4.16699 25.6898 3.41753 25.138 2.86433C24.5762 2.32821 23.8295 2.02909 23.053 2.02909C22.2765 2.02909 21.5298 2.32821 20.968 2.86433L19.554 1.44933C20.482 0.521341 21.7406 0 23.053 0C24.3654 0 25.624 0.521341 26.552 1.44933C27.48 2.37733 28.0013 3.63595 28.0013 4.94833C28.0013 6.26071 27.48 7.51934 26.552 8.44733L21.448 13.5503C20.9894 14.0113 20.4439 14.3768 19.8432 14.6257C19.2424 14.8746 18.5983 15.0019 17.948 15.0003H17.947Z" fill="black"/>
<path d="M22 28.0005H2C1.46973 28 0.961329 27.7891 0.586371 27.4141C0.211413 27.0392 0.000529477 26.5308 0 26.0005V6.00049C0.000529477 5.47022 0.211413 4.96182 0.586371 4.58686C0.961329 4.2119 1.46973 4.00102 2 4.00049H6V6.00049H2V26.0005H22V16.0005H24V26.0005C23.9995 26.5308 23.7886 27.0392 23.4136 27.4141C23.0387 27.7891 22.5303 28 22 28.0005V28.0005Z" fill="black"/>
</svg>
