<svg width="44" height="44" viewBox="0 0 44 44" fill="none" xmlns="http://www.w3.org/2000/svg">
<path d="M39.6 16.2207V31.9001C39.6 33.3587 39.0206 34.7577 37.9891 35.7891C36.9577 36.8206 35.5587 37.4001 34.1 37.4001H9.90002C8.44133 37.4001 7.04239 36.8206 6.01094 35.7891C4.97949 34.7577 4.40002 33.3587 4.40002 31.9001V16.2207L21.4412 26.2483C21.6105 26.3481 21.8035 26.4008 22 26.4008C22.1966 26.4008 22.3895 26.3481 22.5588 26.2483L39.6 16.2207ZM34.1 8.80005C35.4533 8.79984 36.7592 9.29858 37.7679 10.2009C38.7765 11.1032 39.4171 12.3457 39.567 13.6906L22 24.0241L4.43302 13.6906C4.58297 12.3457 5.22354 11.1032 6.23217 10.2009C7.24081 9.29858 8.5467 8.79984 9.90002 8.80005H34.1Z" fill="#FFFAFA"/>
</svg>
