<svg width="44" height="44" viewBox="0 0 44 44" fill="none" xmlns="http://www.w3.org/2000/svg">
<path fill-rule="evenodd" clip-rule="evenodd" d="M22 1.83337C10.8625 1.83337 1.83331 10.8625 1.83331 22C1.83331 33.1375 10.8625 42.1667 22 42.1667C33.1375 42.1667 42.1666 33.1375 42.1666 22C42.1666 10.8625 33.1375 1.83337 22 1.83337ZM21.0833 11C20.5971 11 20.1308 11.1932 19.787 11.537C19.4431 11.8808 19.25 12.3471 19.25 12.8334C19.25 13.3196 19.4431 13.7859 19.787 14.1297C20.1308 14.4736 20.5971 14.6667 21.0833 14.6667H22C22.4862 14.6667 22.9525 14.4736 23.2963 14.1297C23.6402 13.7859 23.8333 13.3196 23.8333 12.8334C23.8333 12.3471 23.6402 11.8808 23.2963 11.537C22.9525 11.1932 22.4862 11 22 11H21.0833ZM18.3333 18.3334C17.8471 18.3334 17.3808 18.5265 17.037 18.8703C16.6931 19.2142 16.5 19.6805 16.5 20.1667C16.5 20.6529 16.6931 21.1193 17.037 21.4631C17.3808 21.8069 17.8471 22 18.3333 22H20.1666V27.5H18.3333C17.8471 27.5 17.3808 27.6932 17.037 28.037C16.6931 28.3808 16.5 28.8471 16.5 29.3334C16.5 29.8196 16.6931 30.2859 17.037 30.6297C17.3808 30.9736 17.8471 31.1667 18.3333 31.1667H25.6666C26.1529 31.1667 26.6192 30.9736 26.963 30.6297C27.3068 30.2859 27.5 29.8196 27.5 29.3334C27.5 28.8471 27.3068 28.3808 26.963 28.037C26.6192 27.6932 26.1529 27.5 25.6666 27.5H23.8333V20.1667C23.8333 19.6805 23.6402 19.2142 23.2963 18.8703C22.9525 18.5265 22.4862 18.3334 22 18.3334H18.3333Z" fill="#FFFAFA"/>
</svg>
