<svg width="44" height="44" viewBox="0 0 44 44" fill="none" xmlns="http://www.w3.org/2000/svg">
<path d="M33 11H29.3333C29.3333 6.94829 26.0516 3.66663 22 3.66663C17.9483 3.66663 14.6666 6.94829 14.6666 11H11C8.98331 11 7.33331 12.65 7.33331 14.6666V36.6666C7.33331 38.6833 8.98331 40.3333 11 40.3333H33C35.0166 40.3333 36.6666 38.6833 36.6666 36.6666V14.6666C36.6666 12.65 35.0166 11 33 11ZM18.3333 18.3333C18.3333 19.3416 17.5083 20.1666 16.5 20.1666C15.4916 20.1666 14.6666 19.3416 14.6666 18.3333V14.6666H18.3333V18.3333ZM22 7.33329C24.0166 7.33329 25.6666 8.98329 25.6666 11H18.3333C18.3333 8.98329 19.9833 7.33329 22 7.33329ZM29.3333 18.3333C29.3333 19.3416 28.5083 20.1666 27.5 20.1666C26.4916 20.1666 25.6666 19.3416 25.6666 18.3333V14.6666H29.3333V18.3333Z" fill="#FFFAFA"/>
</svg>
