<svg width="44" height="44" viewBox="0 0 44 44" fill="none" xmlns="http://www.w3.org/2000/svg">
<path d="M44 14.036L41.778 20.24V20.218C40.634 19.8 39.512 19.866 38.412 20.394C37.312 20.922 36.542 21.758 36.124 22.902C35.706 24.046 35.772 25.168 36.278 26.268C36.806 27.368 37.642 28.116 38.808 28.534V28.556L36.586 34.76L3.454 22.924L5.632 16.786C6.776 17.204 7.898 17.138 8.998 16.61C10.098 16.104 10.846 15.268 11.264 14.124C11.682 12.98 11.616 11.858 11.088 10.758C10.8474 10.2349 10.503 9.76626 10.0756 9.3805C9.64822 8.99473 9.14686 8.69991 8.602 8.51395L10.846 2.19995L44 14.036ZM33.066 26.554L36.08 18.282C36.344 17.6 36.3 16.852 35.992 16.192C35.684 15.532 35.134 15.026 34.452 14.762L17.908 8.75595C16.5 8.24995 14.894 9.01995 14.388 10.384L11.374 18.656C10.846 20.086 11.594 21.67 13.002 22.176L29.546 28.204C29.854 28.314 30.162 28.38 30.492 28.38C31.636 28.38 32.692 27.654 33.066 26.554ZM17.534 9.78995L34.056 15.796C34.474 15.95 34.804 16.258 35.002 16.654C35.178 17.05 35.2 17.49 35.046 17.908L32.032 26.18C31.746 27.016 30.756 27.478 29.92 27.17L13.398 21.142C12.9868 20.993 12.6515 20.6869 12.4658 20.2909C12.2802 19.8948 12.2594 19.4413 12.408 19.03L15.422 10.758C15.642 10.12 16.28 9.67995 16.962 9.67995C17.16 9.67995 17.336 9.72395 17.534 9.78995ZM32.538 36.498C33.308 37.092 34.188 37.4 35.178 37.4H35.2V44H0V37.488C1.21 37.488 2.266 37.048 3.102 36.19C3.96 35.354 4.4 34.298 4.4 33.088C4.4 31.878 3.96 30.844 3.102 29.986C2.244 29.128 1.21 28.688 0 28.688V22H2.31L1.694 23.76L8.008 26.004C6.886 26.356 6.05 27.368 6.05 28.6V37.4C6.05 38.918 7.282 40.15 8.8 40.15H26.4C27.918 40.15 29.15 38.918 29.15 37.4V33.55L30.976 34.21C31.24 35.156 31.768 35.926 32.538 36.498ZM7.15 37.4V28.6C7.15 27.698 7.898 26.95 8.8 26.95H10.626L28.05 33.176V37.4C28.05 38.302 27.302 39.05 26.4 39.05H8.8C7.898 39.05 7.15 38.302 7.15 37.4Z" fill="#FFFAFA"/>
</svg>
