<svg width="23" height="19" viewBox="0 0 23 19" fill="none" xmlns="http://www.w3.org/2000/svg">
<path d="M22.4 4.7222V14.7C22.4 15.6283 22.0313 16.5185 21.3749 17.1749C20.7185 17.8312 19.8283 18.2 18.9 18.2H3.5C2.57174 18.2 1.6815 17.8312 1.02513 17.1749C0.368749 16.5185 0 15.6283 0 14.7V4.7222L10.8444 11.1034C10.9521 11.1669 11.0749 11.2004 11.2 11.2004C11.3251 11.2004 11.4479 11.1669 11.5556 11.1034L22.4 4.7222ZM18.9 4.33338e-08C19.7612 -0.000135402 20.5922 0.317249 21.2341 0.891436C21.8759 1.46562 22.2836 2.2563 22.379 3.1122L11.2 9.688L0.0210001 3.1122C0.116422 2.2563 0.524053 1.46562 1.16591 0.891436C1.80777 0.317249 2.6388 -0.000135402 3.5 4.33338e-08H18.9Z" fill="#A0042D"/>
</svg>
